<svg width="405" height="26" xmlns="http://www.w3.org/2000/svg"><g fill="#FFF" fill-rule="nonzero"><path d="M.276 20.823V1.07h3.297v16.977h8.25v2.797H.276zM25.935 14.74h-9.414c.02.861.157 1.585.394 2.171.573 1.39 1.619 2.093 3.1 2.093.473 0 .907-.078 1.302-.215.651-.254 1.085-.763 1.283-1.526h2.96c-.138.705-.394 1.33-.79 1.839-1.085 1.447-2.703 2.151-4.874 2.151-2.053 0-3.652-.684-4.836-2.073-1.105-1.31-1.658-2.973-1.658-5.026 0-2.093.572-3.834 1.717-5.222 1.165-1.448 2.704-2.152 4.599-2.152.928 0 1.776.176 2.566.548 1.599.743 2.684 2.151 3.257 4.205.276.958.394 2.014.394 3.207zm-3.118-2.034c-.06-.782-.237-1.447-.533-2.014-.592-1.115-1.44-1.663-2.586-1.663-.493 0-.927.118-1.322.333-.987.548-1.599 1.662-1.796 3.344h6.237zM27.79 9.44V7.19h2.192v-1.7l2.151-2.837h.79v4.538h2.565v2.25h-2.546v7.118c0 .802.06 1.31.178 1.526.197.372.612.548 1.224.548a3.9 3.9 0 0 0 1.144-.196v2.386c-.532.196-1.223.313-2.072.313-.395 0-.77-.04-1.125-.098-1.105-.195-1.796-.763-2.053-1.701-.138-.509-.217-1.33-.217-2.465V9.46h-2.23v-.02zM42.278 1.07v2.483c0 1.076-.098 1.917-.316 2.543a3.496 3.496 0 0 1-1.065 1.603c-.573.529-1.323.88-2.211 1.096V7.074c1.046-.255 1.579-1.076 1.618-2.426h-1.618v-3.56h3.592V1.07zM43.147 16.95h3.099c.118.724.394 1.252.809 1.585.434.332 1.046.508 1.835.508.356 0 .711-.039 1.027-.137.947-.254 1.44-.86 1.44-1.78 0-.312-.078-.606-.216-.86-.257-.45-.75-.802-1.48-1.037a30.55 30.55 0 0 0-2.231-.528c-2.704-.606-4.066-1.916-4.066-3.97 0-1.174.454-2.112 1.381-2.856.928-.743 2.172-1.114 3.711-1.114 2.112 0 3.632.606 4.58 1.819.434.547.69 1.232.77 2.092h-3.1c-.177-1.154-.967-1.72-2.329-1.72-.296 0-.572.038-.848.097-.395.098-.691.293-.928.587-.237.274-.336.606-.336.978 0 .254.06.489.158.704.138.293.375.508.71.665.336.156.889.313 1.659.489 1.618.352 2.724.684 3.335.978 1.48.743 2.23 1.877 2.23 3.383 0 1.31-.512 2.367-1.539 3.208-.967.802-2.29 1.193-4.007 1.193-3.335.02-5.23-1.408-5.664-4.283zM66.694 25.967V7.19h2.96v1.525c.948-1.31 2.33-1.955 4.145-1.955.948 0 1.797.195 2.547.586 1.105.587 1.954 1.565 2.566 2.934.473 1.076.71 2.308.71 3.716 0 2.23-.553 3.97-1.658 5.281-1.125 1.31-2.566 1.956-4.362 1.956-.493 0-.967-.059-1.44-.196-1.067-.293-1.915-.86-2.527-1.74v6.65h-2.941v.019zm6.434-16.762a3.04 3.04 0 0 0-1.46.352c-1.362.724-2.033 2.191-2.033 4.401 0 .802.098 1.565.276 2.23.198.802.592 1.428 1.184 1.916a3.081 3.081 0 0 0 2.033.724c1.046 0 1.856-.41 2.468-1.212.67-.88.986-2.074.986-3.54 0-1.39-.296-2.543-.888-3.443-.592-.958-1.46-1.428-2.566-1.428zM89.017 6.76c.948 0 1.777.138 2.507.411 1.46.568 2.566 1.565 3.257 2.993.533 1.056.79 2.347.79 3.833 0 .998-.139 1.956-.415 2.875-.474 1.604-1.421 2.817-2.843 3.6-.947.527-2.033.781-3.296.781-.927 0-1.776-.137-2.566-.43-1.44-.528-2.506-1.506-3.237-2.973-.552-1.115-.809-2.425-.809-3.931 0-1.975.533-3.618 1.599-4.929 1.204-1.486 2.862-2.23 5.013-2.23zm-.02 2.445c-.513 0-.967.098-1.381.294-1.48.684-2.23 2.17-2.23 4.44 0 .782.078 1.506.256 2.17.257.959.75 1.683 1.48 2.152a3.4 3.4 0 0 0 1.895.548c1.007 0 1.836-.352 2.448-1.076.73-.86 1.105-2.132 1.105-3.775 0-1.506-.316-2.699-.987-3.54-.631-.802-1.5-1.213-2.585-1.213zM101.373 20.823L97.347 7.191h3.316l2.427 9.955 2.171-9.955h3.119l2.27 9.857 2.447-9.857h3.178l-4.026 13.632h-3.178l-2.29-9.78-2.21 9.78h-3.198zM130.585 14.74h-9.415c.02.861.158 1.585.395 2.171.572 1.39 1.599 2.093 3.099 2.093.473 0 .908-.078 1.302-.215.652-.254 1.086-.763 1.283-1.526h2.961c-.138.705-.395 1.33-.79 1.839-1.085 1.447-2.704 2.151-4.875 2.151-2.052 0-3.651-.684-4.836-2.073-1.105-1.31-1.657-2.973-1.657-5.026 0-2.093.572-3.834 1.717-5.222 1.164-1.448 2.704-2.152 4.599-2.152.927 0 1.776.176 2.566.548 1.598.743 2.684 2.151 3.256 4.205.277.958.395 2.014.395 3.207zm-3.119-2.034c-.059-.782-.236-1.447-.532-2.014-.593-1.115-1.441-1.663-2.586-1.663-.494 0-.928.118-1.323.333-.986.548-1.598 1.662-1.796 3.344h6.237zM134.138 20.823V7.191h2.842v2.25c.928-1.78 2.33-2.68 4.184-2.68.1 0 .316.02.652.02v2.972a10.694 10.694 0 0 0-1.145-.078c-1.421 0-2.447.645-3.08 1.956-.335.704-.512 1.916-.512 3.677v5.515h-2.941z"/><g><path d="M156.43 20.47V.696h2.941v7.726c.967-1.35 2.31-2.034 3.987-2.034.908 0 1.717.176 2.408.528.71.352 1.224.86 1.599 1.486.395.704.592 1.78.592 3.266v8.782h-2.94v-8.332c0-1.095-.14-1.838-.396-2.269-.414-.684-1.105-1.036-2.092-1.036-.375 0-.71.039-1.006.137-.81.273-1.402.84-1.777 1.701-.256.587-.375 1.643-.375 3.208v6.571h-2.94v.04zM172.2 3.669V.696h3.12v2.973h-3.12zm.1 16.8V6.838h2.94V20.47h-2.94zM179.425 22.015h3.04c.078.352.197.626.374.782.474.43 1.244.645 2.31.645.572 0 1.065-.078 1.48-.254 1.204-.489 1.816-1.877 1.816-4.146v-.704c-.849 1.35-2.152 2.014-3.869 2.014s-3.099-.606-4.125-1.819c-1.046-1.251-1.56-2.933-1.56-5.026 0-2.171.553-3.892 1.659-5.164 1.105-1.29 2.526-1.936 4.303-1.936a5.52 5.52 0 0 1 1.54.215c.947.294 1.736.88 2.368 1.8V6.837h2.763v11.05c0 1.39-.079 2.485-.237 3.267a5.675 5.675 0 0 1-.868 2.093c-1.066 1.584-2.823 2.366-5.23 2.366-1.797 0-3.179-.313-4.146-.919-.987-.606-1.52-1.506-1.618-2.68zm5.743-13.144c-.493 0-.947.098-1.342.313-1.303.665-1.934 2.093-1.934 4.284 0 .723.079 1.408.256 2.014.218.724.612 1.33 1.165 1.78.553.45 1.165.665 1.855.665.967 0 1.737-.372 2.31-1.134.69-.88 1.046-2.054 1.046-3.501 0-1.545-.395-2.719-1.165-3.52-.592-.607-1.322-.9-2.19-.9zM195.728 20.47V.696h2.941v7.726c.967-1.35 2.31-2.034 3.987-2.034.908 0 1.717.176 2.408.528.71.352 1.224.86 1.599 1.486.395.704.592 1.78.592 3.266v8.782h-2.941v-8.332c0-1.095-.138-1.838-.395-2.269-.414-.684-1.105-1.036-2.092-1.036-.375 0-.71.039-1.007.137-.809.273-1.401.84-1.776 1.701-.257.587-.375 1.643-.375 3.208v6.571h-2.941v.04zM223.085 14.387h-9.415c.02.86.158 1.584.394 2.17.573 1.39 1.619 2.094 3.1 2.094.473 0 .907-.079 1.302-.216.651-.254 1.086-.762 1.283-1.525h2.96c-.138.724-.394 1.33-.789 1.838-1.086 1.448-2.704 2.152-4.875 2.152-2.053 0-3.652-.685-4.836-2.073-1.105-1.31-1.658-2.973-1.658-5.027 0-2.093.572-3.833 1.717-5.222 1.165-1.447 2.704-2.151 4.6-2.151.927 0 1.776.176 2.565.547 1.599.743 2.684 2.152 3.257 4.205.256.959.395 2.015.395 3.208zm-3.139-2.034c-.059-.783-.237-1.447-.533-2.015-.592-1.115-1.44-1.662-2.585-1.662-.494 0-.928.117-1.323.332-.987.548-1.598 1.663-1.796 3.345h6.237zM226.637 20.47V6.837h2.843v2.25c.927-1.78 2.329-2.68 4.184-2.68.099 0 .316.02.651.02V9.4c-.513-.06-.908-.098-1.144-.098-1.422 0-2.448.645-3.08 1.956-.335.704-.513 1.916-.513 3.677v5.515h-2.94v.02zM245.803 25.613V6.837h2.96v1.526c.948-1.31 2.33-1.956 4.145-1.956.948 0 1.796.196 2.546.587 1.106.587 1.955 1.565 2.566 2.934.474 1.075.711 2.307.711 3.716 0 2.23-.553 3.97-1.658 5.28-1.125 1.31-2.566 1.956-4.362 1.956-.493 0-.967-.058-1.44-.195-1.067-.294-1.915-.86-2.527-1.741v6.65h-2.941v.02zm6.454-16.78a3.04 3.04 0 0 0-1.46.351c-1.363.724-2.034 2.19-2.034 4.401 0 .802.1 1.545.277 2.23.197.802.592 1.427 1.184 1.916a3.081 3.081 0 0 0 2.033.724c1.046 0 1.855-.41 2.467-1.213.671-.88.987-2.073.987-3.54 0-1.388-.296-2.542-.888-3.442-.612-.939-1.46-1.428-2.566-1.428zM274.047 14.387h-9.414c.02.86.157 1.584.394 2.17.573 1.39 1.619 2.094 3.1 2.094.473 0 .907-.079 1.302-.216.651-.254 1.085-.762 1.283-1.525h2.96c-.138.724-.394 1.33-.79 1.838-1.085 1.448-2.703 2.152-4.874 2.152-2.053 0-3.652-.685-4.836-2.073-1.105-1.31-1.658-2.973-1.658-5.027 0-2.093.572-3.833 1.717-5.222 1.165-1.447 2.704-2.151 4.6-2.151.927 0 1.775.176 2.565.547 1.599.743 2.684 2.152 3.257 4.205.256.959.394 2.015.394 3.208zm-3.138-2.034c-.06-.783-.237-1.447-.533-2.015-.592-1.115-1.44-1.662-2.585-1.662-.494 0-.928.117-1.323.332-.987.548-1.599 1.663-1.796 3.345h6.237zM277.6 20.47V6.837h2.842v2.25c.928-1.78 2.33-2.68 4.185-2.68.099 0 .316.02.651.02V9.4c-.513-.06-.908-.098-1.145-.098-1.42 0-2.447.645-3.079 1.956-.335.704-.513 1.916-.513 3.677v5.515h-2.94v.02zM289.403 20.47V9.087h-2.19v-2.25h2.17V4.96c0-1.584.257-2.719.75-3.364.692-.9 1.757-1.35 3.238-1.35.414 0 .947.059 1.598.196v2.425c-.434-.117-.809-.196-1.125-.196-.355 0-.65.06-.888.196-.414.215-.631.939-.631 2.151v1.82h2.467v2.249h-2.448V20.47h-2.94zM303.338 6.407c.948 0 1.777.137 2.507.43 1.46.568 2.566 1.565 3.257 2.973.533 1.056.79 2.347.79 3.834 0 .997-.139 1.956-.415 2.875-.474 1.623-1.421 2.816-2.843 3.598-.947.529-2.032.783-3.296.783-.927 0-1.776-.137-2.566-.43-1.44-.529-2.506-1.506-3.237-2.973-.552-1.115-.809-2.426-.809-3.932 0-1.975.533-3.618 1.599-4.928 1.204-1.487 2.882-2.23 5.013-2.23zm-.02 2.425c-.513 0-.967.098-1.381.294-1.48.684-2.23 2.17-2.23 4.44 0 .782.078 1.505.256 2.17.257.959.75 1.682 1.48 2.152a3.4 3.4 0 0 0 1.895.547c1.007 0 1.836-.352 2.448-1.075.73-.86 1.105-2.132 1.105-3.775 0-1.526-.316-2.7-.987-3.54-.631-.782-1.5-1.213-2.585-1.213zM313.503 20.47V6.837h2.842v2.25c.928-1.78 2.33-2.68 4.185-2.68.099 0 .316.02.651.02V9.4c-.513-.06-.908-.098-1.145-.098-1.42 0-2.447.645-3.079 1.956-.335.704-.513 1.916-.513 3.677v5.515h-2.94v.02zM323.826 20.47V6.837h2.842V8.48c1.046-1.388 2.369-2.073 3.928-2.073a4.9 4.9 0 0 1 1.421.215c.948.294 1.658.959 2.112 1.976 1.046-1.448 2.428-2.19 4.145-2.19.651 0 1.244.116 1.836.351.868.333 1.5.86 1.914 1.565.415.704.612 1.643.612 2.836v9.31h-2.94v-8.391c0-.978-.08-1.662-.257-2.054-.336-.782-.987-1.193-1.974-1.193-1.224 0-2.053.568-2.507 1.721-.177.47-.276 1.33-.276 2.582v7.335h-2.941v-8.567c0-1.154-.158-1.917-.454-2.327-.375-.49-.908-.744-1.638-.744-.573 0-1.086.157-1.54.49-.454.312-.81.762-1.026 1.29-.217.528-.316 1.37-.316 2.523v7.335h-2.94zM358.94 18.416v2.054a5.262 5.262 0 0 1-1.954.371c-.316 0-.593-.039-.85-.098-.591-.156-1.026-.645-1.282-1.467-1.066 1.076-2.467 1.624-4.204 1.624a5.82 5.82 0 0 1-1.777-.254c-.868-.255-1.559-.705-2.072-1.31-.553-.666-.83-1.468-.83-2.426 0-1.428.573-2.543 1.718-3.364.671-.47 1.46-.802 2.388-.978.908-.176 2.428-.293 4.54-.352v-1.134c0-1.604-.868-2.426-2.625-2.426-.888 0-1.5.118-1.855.352-.356.235-.573.665-.652 1.291h-2.96c.157-2.601 2.052-3.892 5.664-3.892.573 0 1.086.04 1.58.137 1.697.313 2.841 1.056 3.394 2.21.178.352.296.763.355 1.193.06.45.08 1.174.08 2.19v5.164c0 .509.039.841.138 1.017.098.176.296.254.572.254.197 0 .395-.058.632-.156zm-4.323-4.518c-1.322.059-2.349.176-3.099.352s-1.342.47-1.776.88c-.474.47-.71 1.017-.71 1.643 0 .587.216 1.056.611 1.389.415.352.987.508 1.698.508.375 0 .73-.058 1.026-.156.651-.215 1.184-.665 1.599-1.33a4.12 4.12 0 0 0 .631-2.21v-1.076h.02zM362.216 20.47V6.837h2.862V8.56c.987-1.428 2.369-2.152 4.145-2.152.75 0 1.44.137 2.092.43.888.392 1.52.959 1.875 1.682.355.724.533 1.82.533 3.228v8.723h-2.94v-7.941c0-1.056-.08-1.82-.238-2.288a1.781 1.781 0 0 0-.77-.998 2.689 2.689 0 0 0-1.44-.391 2.988 2.988 0 0 0-2.803 1.8c-.257.645-.395 1.642-.395 2.972v6.846h-2.921zM386.533 15.639h3.079c-.197 1.408-.69 2.542-1.48 3.422-1.086 1.213-2.586 1.82-4.48 1.82-1.856 0-3.336-.568-4.481-1.722-1.303-1.33-1.935-3.13-1.935-5.418 0-2.15.553-3.872 1.658-5.163 1.224-1.447 2.843-2.17 4.895-2.17 1.58 0 2.862.43 3.869 1.25 1.007.842 1.599 1.976 1.757 3.424h-3.1c-.137-.724-.453-1.272-.907-1.682-.454-.392-1.026-.587-1.737-.587-1.125 0-1.974.47-2.586 1.388-.572.88-.868 2.034-.868 3.482 0 1.467.316 2.64.928 3.52.572.822 1.381 1.232 2.447 1.232.454 0 .849-.078 1.204-.234.967-.391 1.54-1.252 1.737-2.562zM404.731 14.387h-9.415c.02.86.158 1.584.395 2.17.572 1.39 1.618 2.094 3.099 2.094.474 0 .908-.079 1.303-.216.65-.254 1.085-.762 1.282-1.525h2.961c-.138.724-.395 1.33-.79 1.838-1.085 1.448-2.703 2.152-4.875 2.152-2.052 0-3.651-.685-4.835-2.073-1.106-1.31-1.658-2.973-1.658-5.027 0-2.093.572-3.833 1.717-5.222 1.164-1.447 2.704-2.151 4.599-2.151.927 0 1.776.176 2.566.547 1.598.743 2.684 2.152 3.256 4.205.257.959.395 2.015.395 3.208zm-3.138-2.034c-.06-.783-.237-1.447-.533-2.015-.592-1.115-1.44-1.662-2.586-1.662-.493 0-.927.117-1.322.332-.987.548-1.599 1.663-1.796 3.345h6.237z"/></g></g></svg>